<svg xmlns="http://www.w3.org/2000/svg" version="1.1" xmlns:xlink="http://www.w3.org/1999/xlink" xmlns:svgjs="http://svgjs.dev/svgjs" width="2000" height="479" viewBox="0 0 2000 479"><g transform="matrix(1,0,0,1,-1.2121212121212466,-0.8834787556112929)"><svg viewBox="0 0 396 95" data-background-color="#ffffff" preserveAspectRatio="xMidYMid meet" height="479" width="2000" xmlns="http://www.w3.org/2000/svg" xmlns:xlink="http://www.w3.org/1999/xlink"><g id="tight-bounds" transform="matrix(1,0,0,1,0.2400000000000091,0.17522021249075692)"><svg viewBox="0 0 395.52 94.64955957501849" height="94.64955957501849" width="395.52"><g><svg viewBox="0 0 569.1429651368475 136.19824783935758" height="94.64955957501849" width="395.52"><g transform="matrix(1,0,0,1,173.62296513684745,28.467059142350855)"><svg viewBox="0 0 395.52 79.26412955465587" height="79.26412955465587" width="395.52"><g id="textblocktransform"><svg viewBox="0 0 395.52 79.26412955465587" height="79.26412955465587" width="395.52" id="textblock"><g><svg viewBox="0 0 395.52 79.26412955465587" height="79.26412955465587" width="395.52"><g transform="matrix(1,0,0,1,0,0)"><svg width="395.52" viewBox="5.03 -35.77 180.89 36.260000000000005" height="79.26412955465587" data-palette-color="#ff0000"><path d="M16.99-13.92L11.08-13.92 11.08 0 5.03 0 5.03-35.77 16.04-35.77Q18.97-35.77 21.3-35.02 23.63-34.28 25.24-33 26.86-31.71 27.72-30 28.59-28.3 28.59-26.34L28.59-26.34Q28.59-24.61 27.95-23.1 27.32-21.58 26.29-20.3 25.27-19.02 23.99-17.98 22.71-16.94 21.44-16.19L21.44-16.19 31.79 0 24.63 0 16.99-13.92ZM11.08-31.47L11.08-18.09 18.43-18.09Q19.34-18.58 20.09-19.31 20.85-20.04 21.4-20.96 21.95-21.88 22.24-22.92 22.53-23.97 22.53-25.1L22.53-25.1Q22.53-26.44 22.07-27.61 21.61-28.78 20.69-29.64 19.78-30.49 18.4-30.98 17.02-31.47 15.19-31.47L15.19-31.47 11.08-31.47ZM58.59-5.32L58.59-2.37Q57.52-1.61 56.27-1.07 55.03-0.54 53.71-0.18 52.39 0.17 51.08 0.33 49.78 0.49 48.61 0.49L48.61 0.49Q45.9 0.49 43.56-0.34 41.23-1.17 39.51-2.78 37.79-4.39 36.81-6.75 35.84-9.11 35.84-12.16L35.84-12.16Q35.84-15.41 36.94-18.04 38.03-20.68 39.88-22.52 41.72-24.37 44.15-25.37 46.58-26.37 49.22-26.37L49.22-26.37Q51.41-26.37 53.31-25.65 55.2-24.93 56.58-23.51 57.96-22.09 58.74-19.97 59.52-17.85 59.52-15.04L59.52-15.04Q59.52-14.36 59.46-13.59 59.4-12.82 59.25-12.08L59.25-12.08 41.97-12.08Q41.97-10.11 42.66-8.59 43.36-7.08 44.63-6.07 45.9-5.05 47.68-4.53 49.46-4 51.61-4L51.61-4Q52.22-4 53.04-4.05 53.85-4.1 54.78-4.25 55.71-4.39 56.69-4.65 57.66-4.91 58.59-5.32L58.59-5.32ZM41.97-14.97L54.03-14.97Q54.03-16.75 53.57-18.09 53.12-19.43 52.34-20.34 51.56-21.24 50.52-21.69 49.48-22.14 48.29-22.14L48.29-22.14Q46.95-22.14 45.8-21.61 44.65-21.07 43.8-20.1 42.94-19.14 42.45-17.82 41.97-16.5 41.97-14.97L41.97-14.97ZM68.48-7.15L68.48-21.66 63.28-21.66 63.72-24.44Q65.64-24.93 66.8-25.54 67.96-26.15 68.73-27.04 69.5-27.93 70.08-29.21 70.65-30.49 71.41-32.32L71.41-32.32 74.24-32.32 74.24-25.88 83.54-25.88 82.49-21.66 74.41-21.66 74.41-8.33Q74.41-7.13 74.75-6.31 75.09-5.49 75.73-4.98 76.36-4.47 77.25-4.24 78.14-4 79.27-4L79.27-4Q80.34-4 81.4-4.2 82.47-4.39 83.42-4.76L83.42-4.76 83.42-1.78Q81.76-0.66 79.87-0.09 77.97 0.49 76.04 0.49L76.04 0.49Q72.36 0.49 70.42-1.51 68.48-3.52 68.48-7.15L68.48-7.15ZM90.1 0L90.1-25.88 94.89-25.88 95.72-18.16Q96.06-18.8 96.43-19.47 96.79-20.14 97.16-20.76 97.53-21.39 97.84-21.9 98.16-22.41 98.38-22.75L98.38-22.75Q98.89-23.51 99.54-24.18 100.19-24.85 100.94-25.33 101.7-25.81 102.58-26.09 103.46-26.37 104.48-26.37L104.48-26.37Q105.19-26.37 105.9-26.2 106.61-26.03 107.1-25.66L107.1-25.66 106.46-20.21Q106.02-20.34 105.44-20.37 104.85-20.41 104.39-20.41L104.39-20.41Q102.82-20.41 101.6-19.96 100.38-19.51 99.39-18.71 98.41-17.92 97.59-16.85 96.77-15.77 96.01-14.53L96.01-14.53 96.01 0 90.1 0ZM132.8-5.32L132.8-2.37Q131.73-1.61 130.48-1.07 129.24-0.54 127.92-0.18 126.6 0.17 125.3 0.33 123.99 0.49 122.82 0.49L122.82 0.49Q120.11 0.49 117.78-0.34 115.44-1.17 113.72-2.78 112-4.39 111.03-6.75 110.05-9.11 110.05-12.16L110.05-12.16Q110.05-15.41 111.15-18.04 112.25-20.68 114.09-22.52 115.93-24.37 118.36-25.37 120.79-26.37 123.43-26.37L123.43-26.37Q125.62-26.37 127.52-25.65 129.41-24.93 130.79-23.51 132.17-22.09 132.95-19.97 133.73-17.85 133.73-15.04L133.73-15.04Q133.73-14.36 133.67-13.59 133.61-12.82 133.46-12.08L133.46-12.08 116.18-12.08Q116.18-10.11 116.87-8.59 117.57-7.08 118.84-6.07 120.11-5.05 121.89-4.53 123.67-4 125.82-4L125.82-4Q126.43-4 127.25-4.05 128.07-4.1 128.99-4.25 129.92-4.39 130.9-4.65 131.87-4.91 132.8-5.32L132.8-5.32ZM116.18-14.97L128.24-14.97Q128.24-16.75 127.79-18.09 127.33-19.43 126.55-20.34 125.77-21.24 124.73-21.69 123.7-22.14 122.5-22.14L122.5-22.14Q121.16-22.14 120.01-21.61 118.86-21.07 118.01-20.1 117.15-19.14 116.66-17.82 116.18-16.5 116.18-14.97L116.18-14.97ZM154.46-3.81L154.46-3.81Q153.82-3.27 152.93-2.53 152.04-1.78 150.95-1.11 149.87-0.44 148.58 0.02 147.3 0.49 145.89 0.49L145.89 0.49Q144.45 0.49 143.21-0.04 141.98-0.56 141.06-1.5 140.15-2.44 139.62-3.75 139.1-5.05 139.1-6.64L139.1-6.64Q139.1-8.3 139.77-9.89 140.44-11.47 142.02-12.72 143.59-13.96 146.18-14.73 148.77-15.5 152.58-15.5L152.58-15.5 154.36-15.5 154.36-17.5Q154.36-18.58 153.99-19.43 153.63-20.29 152.97-20.9 152.31-21.51 151.39-21.83 150.48-22.14 149.35-22.14L149.35-22.14Q148.47-22.14 147.47-21.94 146.47-21.73 145.5-21.36 144.52-21 143.59-20.5 142.66-20 141.93-19.41L141.93-19.41 141.49-19.65 140.37-23.75Q143.32-25.29 145.86-25.83 148.4-26.37 150.62-26.37L150.62-26.37Q152.92-26.37 154.71-25.9 156.51-25.44 157.75-24.48 159-23.51 159.64-22.03 160.29-20.56 160.29-18.53L160.29-18.53 160.29-6.57Q160.29-6.2 160.35-5.76 160.41-5.32 160.6-4.93 160.78-4.54 161.13-4.27 161.49-4 162.07-4L162.07-4Q162.41-4 162.9-4.1 163.39-4.2 163.88-4.42L163.88-4.42 163.88-1.49Q162.56-0.59 161.25-0.05 159.95 0.49 158.7 0.49L158.7 0.49Q157.73 0.49 157.02 0.12 156.31-0.24 155.82-0.84 155.33-1.44 155-2.21 154.68-2.98 154.46-3.81ZM154.36-6.96L154.36-12.62 152.82-12.62Q150.28-12.62 148.73-12.27 147.18-11.91 146.33-11.29 145.47-10.67 145.19-9.85 144.91-9.03 144.91-8.08L144.91-8.08Q144.91-7.08 145.2-6.32 145.5-5.57 146-5.05 146.5-4.54 147.18-4.27 147.86-4 148.64-4L148.64-4Q149.23-4 149.87-4.14 150.5-4.27 151.2-4.61 151.89-4.96 152.67-5.52 153.45-6.08 154.36-6.96L154.36-6.96ZM170.86-7.15L170.86-21.66 165.66-21.66 166.1-24.44Q168.03-24.93 169.19-25.54 170.35-26.15 171.12-27.04 171.88-27.93 172.46-29.21 173.03-30.49 173.79-32.32L173.79-32.32 176.62-32.32 176.62-25.88 185.92-25.88 184.87-21.66 176.79-21.66 176.79-8.33Q176.79-7.13 177.13-6.31 177.48-5.49 178.11-4.98 178.74-4.47 179.64-4.24 180.53-4 181.65-4L181.65-4Q182.72-4 183.79-4.2 184.85-4.39 185.8-4.76L185.8-4.76 185.8-1.78Q184.14-0.66 182.25-0.09 180.36 0.49 178.43 0.49L178.43 0.49Q174.74 0.49 172.8-1.51 170.86-3.52 170.86-7.15L170.86-7.15Z" opacity="1" transform="matrix(1,0,0,1,0,0)" fill="#000000" class="wordmark-text-0" data-fill-palette-color="primary" id="text-0"></path></svg></g></svg></g></svg></g></svg></g><g><svg viewBox="0 0 136.19824783935758 136.19824783935758" height="136.19824783935758" width="136.19824783935758"><g><svg></svg></g><g id="icon-0"><svg viewBox="0 0 136.19824783935758 136.19824783935758" height="136.19824783935758" width="136.19824783935758"><g><path d="M0 68.099c0-37.61 30.489-68.099 68.099-68.099 37.61 0 68.099 30.489 68.099 68.099 0 37.61-30.489 68.099-68.099 68.099-37.61 0-68.099-30.489-68.099-68.099zM68.099 129.05c33.662 0 60.951-27.289 60.951-60.951 0-33.662-27.289-60.951-60.951-60.951-33.662 0-60.951 27.289-60.951 60.951 0 33.662 27.289 60.951 60.951 60.951z" data-fill-palette-color="accent" fill="#000000" stroke="transparent"></path></g><g transform="matrix(1,0,0,1,36.696121417806935,31.222463036617825)"><svg viewBox="0 0 62.8060050037437 73.75332176612193" height="73.75332176612193" width="62.8060050037437"><g><svg xmlns="http://www.w3.org/2000/svg" xmlns:xlink="http://www.w3.org/1999/xlink" version="1.1" x="0" y="0" viewBox="21.697999999999993 16.799 44.411 52.151999999999994" enable-background="new 0 0 90 90" xml:space="preserve" height="73.75332176612193" width="62.8060050037437" class="icon-cg-0" data-fill-palette-color="accent" id="cg-0"><path fill="#000000" d="M52.053 55.666l-1.357 2.164c6.828 0.666 11.666 2.311 11.666 4.236 0 2.516-8.25 4.557-18.423 4.557-10.175 0-18.423-2.041-18.423-4.557 0-1.912 4.761-3.545 11.506-4.223l-1.36-2.168c-8.18 1.016-13.964 3.492-13.964 6.391 0 3.803 9.942 6.885 22.207 6.885 12.265 0 22.204-3.082 22.204-6.885C66.109 59.156 60.281 56.674 52.053 55.666z" data-fill-palette-color="accent"></path><path fill="#000000" d="M43.766 16.799c-8.411 0-15.228 7.186-15.228 16.048 0 3.802 1.262 7.036 3.339 10.057l11.842 18.883 0.001 0.025 0.009-0.008 0.04 0.066 0.015-0.16 11.606-18.509c2.146-3.028 3.604-6.405 3.604-10.354C58.994 23.985 52.176 16.799 43.766 16.799zM43.765 38.206c-3.75 0-6.792-3.04-6.792-6.79 0-3.751 3.042-6.792 6.792-6.792 3.751 0 6.79 3.041 6.79 6.792C50.555 35.166 47.516 38.206 43.765 38.206z" data-fill-palette-color="accent"></path></svg></g></svg></g></svg></g></svg></g></svg></g><defs></defs></svg><rect width="395.52" height="94.64955957501849" fill="none" stroke="none" visibility="hidden"></rect></g></svg></g></svg>