<svg width="44" height="44" viewBox="0 0 44 44" fill="none" xmlns="http://www.w3.org/2000/svg">
<path d="M22.0003 3.66675C12.0618 3.66675 3.66699 12.0616 3.66699 22.0001C3.66699 31.9386 12.0618 40.3334 22.0003 40.3334C31.9388 40.3334 40.3337 31.9386 40.3337 22.0001C40.3337 12.0616 31.9388 3.66675 22.0003 3.66675ZM22.0003 12.8334C25.1665 12.8334 27.5003 15.1654 27.5003 18.3334C27.5003 21.5014 25.1665 23.8334 22.0003 23.8334C18.836 23.8334 16.5003 21.5014 16.5003 18.3334C16.5003 15.1654 18.836 12.8334 22.0003 12.8334ZM12.6393 30.7487C14.2838 28.3287 17.0265 26.7154 20.167 26.7154H23.8337C26.976 26.7154 29.7168 28.3287 31.3613 30.7487C29.0183 33.2567 25.6945 34.8334 22.0003 34.8334C18.3062 34.8334 14.9823 33.2567 12.6393 30.7487Z" fill="#C2C6CC"/>
</svg>
