<?xml version="1.0" encoding="UTF-8" standalone="no"?>
<!-- Created with Inkscape (http://www.inkscape.org/) -->

<svg
   width="51.866295mm"
   height="51.866295mm"
   viewBox="0 0 51.866295 51.866295"
   version="1.1"
   id="svg1"
   xmlns="http://www.w3.org/2000/svg"
   xmlns:svg="http://www.w3.org/2000/svg">
  <defs
     id="defs1">
    <clipPath
       clipPathUnits="userSpaceOnUse"
       id="clipPath13">
      <rect
         style="fill:#000000;fill-opacity:0.38;stroke-width:0.233433"
         id="rect13"
         width="51.866295"
         height="51.866295"
         x="21.231766"
         y="21.437466" />
    </clipPath>
  </defs>
  <g
     id="layer1"
     transform="translate(-21.231765,-21.437465)">
    <svg
       viewBox="0 0 395.52 94.64956"
       height="94.649559"
       width="395.51999"
       version="1.1"
       id="svg10"
       clip-path="url(#clipPath13)">
      <g
         id="g10">
        <svg
           viewBox="0 0 569.14297 136.19825"
           height="94.649559"
           width="395.51999"
           version="1.1"
           id="svg9">
          <g
             transform="translate(173.62297,28.467059)"
             id="g4">
            <svg
               viewBox="0 0 395.52 79.26413"
               height="79.26413"
               width="395.51999"
               version="1.1"
               id="svg4">
              <g
                 id="textblocktransform">
                <svg
                   viewBox="0 0 395.52 79.26413"
                   height="79.26413"
                   width="395.51999"
                   id="textblock"
                   version="1.1">
                  <g
                     id="g3">
                    <svg
                       viewBox="0 0 395.52 79.26413"
                       height="79.26413"
                       width="395.51999"
                       version="1.1"
                       id="svg3">
                      <g
                         id="g2">
                        <svg
                           width="395.51999"
                           viewBox="5.03 -35.77 180.89 36.26"
                           height="79.26413"
                           data-palette-color="#ff0000"
                           version="1.1"
                           id="svg2">
                          <path
                             d="M 16.99,-13.92 H 11.08 V 0 H 5.03 v -35.77 h 11.01 q 2.93,0 5.26,0.75 2.33,0.74 3.94,2.02 1.62,1.29 2.48,3 0.87,1.7 0.87,3.66 v 0 q 0,1.73 -0.64,3.24 -0.63,1.52 -1.66,2.8 -1.02,1.28 -2.3,2.32 -1.28,1.04 -2.55,1.79 v 0 L 31.79,0 h -7.16 z m -5.91,-17.55 v 13.38 h 7.35 q 0.91,-0.49 1.66,-1.22 0.76,-0.73 1.31,-1.65 0.55,-0.92 0.84,-1.96 0.29,-1.05 0.29,-2.18 v 0 q 0,-1.34 -0.46,-2.51 -0.46,-1.17 -1.38,-2.03 -0.91,-0.85 -2.29,-1.34 -1.38,-0.49 -3.21,-0.49 v 0 z m 47.51,26.15 v 2.95 q -1.07,0.76 -2.32,1.3 -1.24,0.53 -2.56,0.89 -1.32,0.35 -2.63,0.51 -1.3,0.16 -2.47,0.16 v 0 q -2.71,0 -5.05,-0.83 -2.33,-0.83 -4.05,-2.44 -1.72,-1.61 -2.7,-3.97 -0.97,-2.36 -0.97,-5.41 v 0 q 0,-3.25 1.1,-5.88 1.09,-2.64 2.94,-4.48 1.84,-1.85 4.27,-2.85 2.43,-1 5.07,-1 v 0 q 2.19,0 4.09,0.72 1.89,0.72 3.27,2.14 1.38,1.42 2.16,3.54 0.78,2.12 0.78,4.93 v 0 q 0,0.68 -0.06,1.45 -0.06,0.77 -0.21,1.51 v 0 H 41.97 q 0,1.97 0.69,3.49 0.7,1.51 1.97,2.52 1.27,1.02 3.05,1.54 1.78,0.53 3.93,0.53 v 0 q 0.61,0 1.43,-0.05 0.81,-0.05 1.74,-0.2 0.93,-0.14 1.91,-0.4 0.97,-0.26 1.9,-0.67 z m -16.62,-9.65 h 12.06 q 0,-1.78 -0.46,-3.12 -0.45,-1.34 -1.23,-2.25 -0.78,-0.9 -1.82,-1.35 -1.04,-0.45 -2.23,-0.45 v 0 q -1.34,0 -2.49,0.53 -1.15,0.54 -2,1.51 -0.86,0.96 -1.35,2.28 -0.48,1.32 -0.48,2.85 z m 26.51,7.82 v -14.51 h -5.2 l 0.44,-2.78 q 1.92,-0.49 3.08,-1.1 1.16,-0.61 1.93,-1.5 0.77,-0.89 1.35,-2.17 0.57,-1.28 1.33,-3.11 v 0 h 2.83 v 6.44 h 9.3 l -1.05,4.22 h -8.08 v 13.33 q 0,1.2 0.34,2.02 0.34,0.82 0.98,1.33 0.63,0.51 1.52,0.74 0.89,0.24 2.02,0.24 v 0 q 1.07,0 2.13,-0.2 1.07,-0.19 2.02,-0.56 v 0 2.98 q -1.66,1.12 -3.55,1.69 -1.9,0.58 -3.83,0.58 v 0 q -3.68,0 -5.62,-2 -1.94,-2.01 -1.94,-5.64 z M 90.1,0 v -25.88 h 4.79 l 0.83,7.72 q 0.34,-0.64 0.71,-1.31 0.36,-0.67 0.73,-1.29 0.37,-0.63 0.68,-1.14 0.32,-0.51 0.54,-0.85 v 0 q 0.51,-0.76 1.16,-1.43 0.65,-0.67 1.4,-1.15 0.76,-0.48 1.64,-0.76 0.88,-0.28 1.9,-0.28 v 0 q 0.71,0 1.42,0.17 0.71,0.17 1.2,0.54 v 0 l -0.64,5.45 q -0.44,-0.13 -1.02,-0.16 -0.59,-0.04 -1.05,-0.04 v 0 q -1.57,0 -2.79,0.45 -1.22,0.45 -2.21,1.25 -0.98,0.79 -1.8,1.86 -0.82,1.08 -1.58,2.32 v 0 V 0 Z m 42.7,-5.32 v 2.95 q -1.07,0.76 -2.32,1.3 -1.24,0.53 -2.56,0.89 -1.32,0.35 -2.62,0.51 -1.31,0.16 -2.48,0.16 v 0 q -2.71,0 -5.04,-0.83 -2.34,-0.83 -4.06,-2.44 -1.72,-1.61 -2.69,-3.97 -0.98,-2.36 -0.98,-5.41 v 0 q 0,-3.25 1.1,-5.88 1.1,-2.64 2.94,-4.48 1.84,-1.85 4.27,-2.85 2.43,-1 5.07,-1 v 0 q 2.19,0 4.09,0.72 1.89,0.72 3.27,2.14 1.38,1.42 2.16,3.54 0.78,2.12 0.78,4.93 v 0 q 0,0.68 -0.06,1.45 -0.06,0.77 -0.21,1.51 v 0 h -17.28 q 0,1.97 0.69,3.49 0.7,1.51 1.97,2.52 1.27,1.02 3.05,1.54 1.78,0.53 3.93,0.53 v 0 q 0.61,0 1.43,-0.05 0.82,-0.05 1.74,-0.2 0.93,-0.14 1.91,-0.4 0.97,-0.26 1.9,-0.67 z m -16.62,-9.65 h 12.06 q 0,-1.78 -0.45,-3.12 -0.46,-1.34 -1.24,-2.25 -0.78,-0.9 -1.82,-1.35 -1.03,-0.45 -2.23,-0.45 v 0 q -1.34,0 -2.49,0.53 -1.15,0.54 -2,1.51 -0.86,0.96 -1.35,2.28 -0.48,1.32 -0.48,2.85 z m 38.28,11.16 v 0 q -0.64,0.54 -1.53,1.28 -0.89,0.75 -1.98,1.42 -1.08,0.67 -2.37,1.13 -1.28,0.47 -2.69,0.47 v 0 q -1.44,0 -2.68,-0.53 -1.23,-0.52 -2.15,-1.46 -0.91,-0.94 -1.44,-2.25 -0.52,-1.3 -0.52,-2.89 v 0 q 0,-1.66 0.67,-3.25 0.67,-1.58 2.25,-2.83 1.57,-1.24 4.16,-2.01 2.59,-0.77 6.4,-0.77 v 0 h 1.78 v -2 q 0,-1.08 -0.37,-1.93 -0.36,-0.86 -1.02,-1.47 -0.66,-0.61 -1.58,-0.93 -0.91,-0.31 -2.04,-0.31 v 0 q -0.88,0 -1.88,0.2 -1,0.21 -1.97,0.58 -0.98,0.36 -1.91,0.86 -0.93,0.5 -1.66,1.09 v 0 l -0.44,-0.24 -1.12,-4.1 q 2.95,-1.54 5.49,-2.08 2.54,-0.54 4.76,-0.54 v 0 q 2.3,0 4.09,0.47 1.8,0.46 3.04,1.42 1.25,0.97 1.89,2.45 0.65,1.47 0.65,3.5 v 0 11.96 q 0,0.37 0.06,0.81 0.06,0.44 0.25,0.83 0.18,0.39 0.53,0.66 0.36,0.27 0.94,0.27 v 0 q 0.34,0 0.83,-0.1 0.49,-0.1 0.98,-0.32 v 0 2.93 q -1.32,0.9 -2.63,1.44 -1.3,0.54 -2.55,0.54 v 0 q -0.97,0 -1.68,-0.37 -0.71,-0.36 -1.2,-0.96 -0.49,-0.6 -0.82,-1.37 -0.32,-0.77 -0.54,-1.6 z m -0.1,-3.15 v -5.66 h -1.54 q -2.54,0 -4.09,0.35 -1.55,0.36 -2.4,0.98 -0.86,0.62 -1.14,1.44 -0.28,0.82 -0.28,1.77 v 0 q 0,1 0.29,1.76 0.3,0.75 0.8,1.27 0.5,0.51 1.18,0.78 0.68,0.27 1.46,0.27 v 0 q 0.59,0 1.23,-0.14 0.63,-0.13 1.33,-0.47 0.69,-0.35 1.47,-0.91 0.78,-0.56 1.69,-1.44 z m 16.5,-0.19 v -14.51 h -5.2 l 0.44,-2.78 q 1.93,-0.49 3.09,-1.1 1.16,-0.61 1.93,-1.5 0.76,-0.89 1.34,-2.17 0.57,-1.28 1.33,-3.11 v 0 h 2.83 v 6.44 h 9.3 l -1.05,4.22 h -8.08 v 13.33 q 0,1.2 0.34,2.02 0.35,0.82 0.98,1.33 0.63,0.51 1.53,0.74 0.89,0.24 2.01,0.24 v 0 q 1.07,0 2.14,-0.2 1.06,-0.19 2.01,-0.56 v 0 2.98 q -1.66,1.12 -3.55,1.69 -1.89,0.58 -3.82,0.58 v 0 q -3.69,0 -5.63,-2 -1.94,-2.01 -1.94,-5.64 z"
                             opacity="1"
                             fill="#ff0000"
                             class="wordmark-text-0"
                             data-fill-palette-color="primary"
                             id="text-0" />
                        </svg>
                      </g>
                    </svg>
                  </g>
                </svg>
              </g>
            </svg>
          </g>
          <g
             id="g9">
            <svg
               viewBox="0 0 136.19825 136.19825"
               height="136.19824"
               width="136.19824"
               version="1.1"
               id="svg8">
              <g
                 id="g5">
                <svg
                   version="1.1"
                   id="svg5"
                   width="100%"
                   height="100%" />
              </g>
              <g
                 id="icon-0">
                <svg
                   viewBox="0 0 136.19825 136.19825"
                   height="136.19824"
                   width="136.19824"
                   version="1.1"
                   id="svg7">
                  <g
                     id="g6">
                    <path
                       d="M 0,68.099 C 0,30.489 30.489,0 68.099,0 c 37.61,0 68.099,30.489 68.099,68.099 0,37.61 -30.489,68.099 -68.099,68.099 C 30.489,136.198 0,105.709 0,68.099 Z m 68.099,60.951 c 33.662,0 60.951,-27.289 60.951,-60.951 0,-33.662 -27.289,-60.951 -60.951,-60.951 -33.662,0 -60.951,27.289 -60.951,60.951 0,33.662 27.289,60.951 60.951,60.951 z"
                       data-fill-palette-color="accent"
                       fill="#ff0000"
                       stroke="transparent"
                       id="path4" />
                  </g>
                  <g
                     transform="translate(36.696121,31.222463)"
                     id="g8">
                    <svg
                       viewBox="0 0 62.806005 73.753322"
                       height="73.753319"
                       width="62.806004"
                       version="1.1"
                       id="svg6">
                      <g
                         id="g7">
                        <svg
                           version="1.1"
                           x="0"
                           y="0"
                           viewBox="21.698 16.799 44.411 52.152"
                           enable-background="new 0 0 90 90"
                           xml:space="preserve"
                           height="73.753319"
                           width="62.806004"
                           class="icon-cg-0"
                           data-fill-palette-color="accent"
                           id="cg-0"><path
                             fill="#ff0000"
                             d="m 52.053,55.666 -1.357,2.164 c 6.828,0.666 11.666,2.311 11.666,4.236 0,2.516 -8.25,4.557 -18.423,4.557 -10.175,0 -18.423,-2.041 -18.423,-4.557 0,-1.912 4.761,-3.545 11.506,-4.223 l -1.36,-2.168 c -8.18,1.016 -13.964,3.492 -13.964,6.391 0,3.803 9.942,6.885 22.207,6.885 12.265,0 22.204,-3.082 22.204,-6.885 0,-2.91 -5.828,-5.392 -14.056,-6.4 z"
                             data-fill-palette-color="accent"
                             id="path5" /><path
                             fill="#ff0000"
                             d="m 43.766,16.799 c -8.411,0 -15.228,7.186 -15.228,16.048 0,3.802 1.262,7.036 3.339,10.057 l 11.842,18.883 10e-4,0.025 0.009,-0.008 0.04,0.066 0.015,-0.16 11.606,-18.509 c 2.146,-3.028 3.604,-6.405 3.604,-10.354 0,-8.862 -6.818,-16.048 -15.228,-16.048 z m -10e-4,21.407 c -3.75,0 -6.792,-3.04 -6.792,-6.79 0,-3.751 3.042,-6.792 6.792,-6.792 3.751,0 6.79,3.041 6.79,6.792 0,3.75 -3.039,6.79 -6.79,6.79 z"
                             data-fill-palette-color="accent"
                             id="path6" /></svg>
                      </g>
                    </svg>
                  </g>
                </svg>
              </g>
            </svg>
          </g>
        </svg>
      </g>
      <defs
         id="defs9" />
    </svg>
  </g>
</svg>
